<svg xmlns="http://www.w3.org/2000/svg" xmlns:xlink="http://www.w3.org/1999/xlink" width="500" zoomAndPan="magnify" viewBox="0 0 375 374.999991" height="500" preserveAspectRatio="xMidYMid meet" version="1.0"><defs><clipPath id="bfc477b99a"><path d="M 95 61.148438 L 285 61.148438 L 285 283 L 95 283 Z M 95 61.148438 " clip-rule="nonzero"/></clipPath></defs><g clip-path="url(#bfc477b99a)"><path fill="#00d9d2" d="M 284.257812 97.648438 C 283.066406 76.625 266.800781 61.496094 246.230469 61.425781 C 236.4375 61.394531 226.644531 61.421875 216.851562 61.421875 C 203.355469 61.421875 189.863281 61.507812 172.597656 61.359375 L 172.597656 118.152344 C 163.125 118.632812 154.019531 120.804688 145.214844 124.503906 C 99.816406 143.582031 84.503906 195.679688 103.746094 236.3125 C 122.71875 276.371094 169.144531 290.710938 206.886719 277.199219 C 216.714844 273.683594 225.386719 268.28125 233.421875 261.015625 C 230.121094 257.277344 227.097656 253.855469 224.078125 250.429688 C 221.121094 247.066406 221.132812 247.085938 217.609375 249.75 C 197.535156 264.960938 175.480469 267.660156 152.558594 258.171875 C 130.371094 248.996094 117.964844 231.414062 115.269531 207.644531 C 112.882812 186.5625 119.019531 168.03125 134.769531 153.304688 C 145.53125 143.242188 158.34375 138.015625 172.59375 136.898438 L 172.59375 222.394531 L 190.914062 222.394531 L 190.914062 136.585938 C 209.203125 136.511719 227.496094 136.605469 245.785156 136.589844 C 247.703125 136.589844 249.644531 136.652344 251.523438 136.359375 C 271.988281 133.113281 285.296875 115.777344 284.257812 97.648438 Z M 265.011719 103.660156 C 262.445312 112.703125 254.996094 118.097656 244.871094 118.109375 C 226.886719 118.121094 208.902344 118.117188 190.917969 118.078125 L 190.917969 80.140625 C 209.605469 80.105469 226.636719 80.128906 243.671875 80.148438 C 245.6875 80.148438 247.726562 80.203125 249.71875 80.453125 C 260.25 81.773438 267.914062 93.4375 265.011719 103.660156 Z M 265.011719 103.660156 " fill-opacity="1" fill-rule="nonzero"/></g></svg>